<svg width="579px" height="447px" viewBox="0 0 579 447" version="1.1" xmlns="http://www.w3.org/2000/svg" xmlns:xlink="http://www.w3.org/1999/xlink">
  <g stroke="none" stroke-width="1" fill="none" fill-rule="evenodd">
    <g transform="translate(-272.000000, -509.000000)" fill-rule="nonzero">
      <g transform="translate(-2.000000, -1.000000)" id="Form">
        <g transform="translate(59.790028, 510.000000)">
          <g id="illustration" transform="translate(214.209972, -0.000000)">
            <path
              fill="#28D7A1"
              opacity="0.15"
              d="M199.65664,137.311638 C199.65664,137.311638 116.54649,88.9242767 13.142001,316.344877 C13.142001,316.344877 -32.8826606,390.37754 47.3282982,423.861594 C58.3452251,428.458393 150.853587,473.603802 240.728517,423.764819 C240.728517,423.764819 301.611534,395.216276 429.562509,407.240535 C430.359787,407.313116 431.157064,407.33731 431.930182,407.313116 C446.087899,407.192148 571.188003,403.369546 578.484301,305.699657 C578.484301,305.699657 591.264903,227.747617 489.575769,227.312131 C378.971621,226.852451 357.662565,227.312131 292.430761,188.602242 C292.430761,188.602242 239.278921,154.731089 199.65664,137.311638 Z"
            />
            <path
              fill="#F7C6B2"
              d="M416,158.160568 C416,158.160568 426.145464,132.033247 432.771568,122.855996 C432.771568,122.855996 446.849005,101.06305 474.033022,94.76731 C474.033022,94.76731 490.561876,92.1763709 505.585899,88.4715701 C505.585899,88.4715701 524.517626,82.1758302 505.585899,115.59168 C505.585899,115.59168 482.722199,132.735465 465.004045,143.631937 C465.004045,143.631937 463.305044,153.75355 447.310163,158.160568 C447.310163,158.160568 425.927021,160.04929 416,158.160568 Z"
            />
            <g transform="translate(431.000000, 0.000000)" fill="#29D8A1">
              <path
                d="M51.5723653,0 C23.3016393,0 0.144730679,23.1327869 0.144730679,51.4276347 C0.144730679,79.7224824 23.2775176,102.855269 51.5723653,102.855269 C79.8672131,102.855269 103,79.6983607 103,51.4276347 C103,23.1569087 79.8430913,0 51.5723653,0 Z M41.2964871,77.141452 L15.5826698,51.4276347 L22.7709602,44.2393443 L41.2723653,62.7407494 L80.3496487,23.663466 L87.5379391,30.8517564 L41.2964871,77.141452 Z"
              />
            </g>
            <path
              fill="#FFD7C5"
              d="M437,143.160568 C437,143.160568 447.145464,117.033247 453.771568,107.855996 C453.771568,107.855996 467.849005,86.0630499 495.033022,79.76731 C495.033022,79.76731 511.561876,77.1763709 526.585899,73.4715701 C526.585899,73.4715701 545.517626,67.1758302 526.585899,100.59168 C526.585899,100.59168 510.809461,121.658195 493.091307,132.554668 C493.091307,132.554668 484.305044,138.75355 468.310163,143.160568 C468.310163,143.160568 446.927021,145.04929 437,143.160568 Z"
            />
            <path
              fill="#23CC94"
              d="M236.884209,277.400434 C236.884209,277.400434 258.204821,351.979246 331.690832,263.9835 C331.690832,263.9835 388.835874,202.048033 415.426207,157.566667 L433,150 C433,150 335.631036,332.156029 259.461819,339.408425 C259.461819,339.408425 214.71754,349.56178 220.519068,285.74069 L236.884209,277.400434 Z"
            />
            <path
              fill="#FFD7C5"
              d="M326,108 C326,108 304.616145,144.057362 311.140033,178.03635 C311.140033,178.03635 311.913234,229.319005 292.583196,225.887272 C292.583196,225.887272 271.271829,220.812174 261.848435,229.512342 C261.848435,229.512342 224.15486,274.463208 239.377265,310.713907 C239.377265,310.713907 209.512356,315.861506 194,282.486696 L227.779242,163.632739 L253.149918,116.410162 L326,108 Z"
            />
            <path
              d="M380.786325,223 C356.111465,253.897671 334.387912,278.307072 334.387912,278.307072 C258.766724,370.927723 239.462274,310.145421 239.462274,310.145421 C239.462274,310.145421 230.318062,308.022864 221.125467,285.3501 C211.932872,262.677337 188.032125,281.129107 188.032125,281.129107 C143.327085,362.292777 118.990899,416.53857 118.990899,416.53857 C114.805849,426.090075 111.540059,434.652662 109,442.298689 C145.528469,448.907559 193.620255,448.979919 240.962119,422.83388 C240.962119,422.83388 257.968419,414.898413 292.90028,409.157862 C320.792548,386.123299 378.294648,295.311644 420,226.111475 C405.025747,225.580836 392.325451,224.640157 380.786325,223 Z"
              fill="#29D8A1"
            />
            <path
              d="M238.808968,310.433725 C238.808968,310.433725 258.101631,371.309932 333.676648,278.546188 C333.676648,278.546188 406.350514,196.653196 436.812613,143 L468,143 C468,143 338.439373,371.575661 292.020937,409.719919 C292.020937,409.719919 316.003796,380.127319 268.521603,360.439181 C268.521603,360.439181 83.5489674,496.710086 118.362795,416.967087 C118.362795,416.967087 142.684122,362.637488 187.361867,281.348427 C187.361867,281.348427 211.248021,262.86815 220.435004,285.575941 C229.621986,308.283732 238.808968,310.433725 238.808968,310.433725 Z"
              fill="#29D8A1"
            />
            <path
              d="M193.451553,282.993714 C193.451553,282.993714 254.977303,285.171136 251.58612,208.477489 C251.58612,208.477489 239.474752,134.445135 285.497951,128.154805 C285.497951,128.154805 345.570338,120.412859 332.005605,72.0256999 C332.005605,72.0256999 311.174052,11.5417511 235.599114,71.5418284 C235.599114,71.5418284 202.656193,92.3483068 198.2961,152.348384 C198.2961,152.348384 187.638096,198.800057 167.290997,234.606555 C167.290997,234.606555 144.521625,278.154998 193.451553,282.993714 Z"
              fill="#0D0D0D"
            />
          </g>
        </g>
      </g>
    </g>
  </g>
</svg>